<svg width="609" height="141" viewBox="0 0 609 141" fill="none" xmlns="http://www.w3.org/2000/svg">
<path d="M60.6 53.7C66.1 55.6 70.6 58.75 74.1 63.15C77.7 67.45 79.5 73.1 79.5 80.1C79.5 91.2 76.25 99.15 69.75 103.95C63.35 108.65 55.5 111 46.2 111H7.65C5.65 111 3.95 110.3 2.55 108.9C1.15 107.5 0.450001 105.8 0.450001 103.8V13.2C0.450001 11.2 1.15 9.49999 2.55 8.09999C3.95 6.69999 5.65 5.99999 7.65 5.99999H46.2C55.3 5.99999 62.2 8.24999 66.9 12.75C71.7 17.25 74.1 23.75 74.1 32.25C74.1 37.05 72.95 41.35 70.65 45.15C68.35 48.85 65 51.7 60.6 53.7ZM58.65 34.5C58.65 29.8 57.35 26.25 54.75 23.85C52.25 21.35 48.7 20.1 44.1 20.1H15.75V49.35H44.4C48.5 49.25 51.9 47.95 54.6 45.45C57.3 42.85 58.65 39.2 58.65 34.5ZM46.05 97.2C51.55 97.2 55.95 95.8 59.25 93C62.55 90.1 64.2 85.8 64.2 80.1C64.2 69 57.9 63.45 45.3 63.45H15.75V97.2H46.05ZM110.148 103.8C110.148 105.8 109.448 107.5 108.048 108.9C106.748 110.3 105.048 111 102.948 111C100.948 111 99.248 110.3 97.848 108.9C96.548 107.5 95.898 105.8 95.898 103.8V38.85C95.898 36.85 96.548 35.15 97.848 33.75C99.248 32.35 100.948 31.65 102.948 31.65C105.048 31.65 106.748 32.35 108.048 33.75C109.448 35.15 110.148 36.85 110.148 38.85V103.8ZM102.948 21.75C100.048 21.75 97.948 21.25 96.648 20.25C95.448 19.15 94.848 17.45 94.848 15.15V12.75C94.848 10.35 95.498 8.65 96.798 7.65C98.198 6.64999 100.298 6.14999 103.098 6.14999C105.898 6.14999 107.898 6.69999 109.098 7.8C110.398 8.8 111.048 10.45 111.048 12.75V15.15C111.048 17.55 110.398 19.25 109.098 20.25C107.798 21.25 105.748 21.75 102.948 21.75ZM144.132 103.8C144.132 105.8 143.432 107.5 142.032 108.9C140.732 110.3 139.032 111 136.932 111C134.932 111 133.232 110.3 131.832 108.9C130.532 107.5 129.882 105.8 129.882 103.8V38.85C129.882 36.85 130.532 35.15 131.832 33.75C133.232 32.35 134.932 31.65 136.932 31.65C139.032 31.65 140.732 32.35 142.032 33.75C143.432 35.15 144.132 36.85 144.132 38.85V103.8ZM136.932 21.75C134.032 21.75 131.932 21.25 130.632 20.25C129.432 19.15 128.832 17.45 128.832 15.15V12.75C128.832 10.35 129.482 8.65 130.782 7.65C132.182 6.64999 134.282 6.14999 137.082 6.14999C139.882 6.14999 141.882 6.69999 143.082 7.8C144.382 8.8 145.032 10.45 145.032 12.75V15.15C145.032 17.55 144.382 19.25 143.082 20.25C141.782 21.25 139.732 21.75 136.932 21.75ZM230.317 31.35C232.417 31.35 234.117 32.05 235.417 33.45C236.817 34.75 237.517 36.5 237.517 38.7V104.7C237.517 112.8 235.767 119.55 232.267 124.95C228.867 130.45 224.217 134.5 218.317 137.1C212.417 139.7 205.767 141 198.367 141C194.367 141 189.667 140.3 184.267 138.9C178.967 137.5 175.567 136.05 174.067 134.55C170.967 132.95 169.417 130.95 169.417 128.55C169.417 127.95 169.617 127.15 170.017 126.15C171.117 123.65 172.967 122.4 175.567 122.4C176.867 122.4 178.267 122.7 179.767 123.3C187.767 126.4 194.017 127.95 198.517 127.95C206.517 127.95 212.617 126 216.817 122.1C221.117 118.3 223.267 113.05 223.267 106.35V98.25C221.167 102.15 217.617 105.5 212.617 108.3C207.717 111.1 202.517 112.5 197.017 112.5C190.117 112.5 183.817 110.75 178.117 107.25C172.417 103.75 167.917 98.9 164.617 92.7C161.417 86.4 159.817 79.35 159.817 71.55C159.817 63.75 161.417 56.75 164.617 50.55C167.917 44.25 172.367 39.35 177.967 35.85C183.667 32.35 189.917 30.6 196.717 30.6C202.217 30.6 207.317 31.85 212.017 34.35C216.817 36.85 220.567 39.9 223.267 43.5V38.7C223.267 36.6 223.917 34.85 225.217 33.45C226.517 32.05 228.217 31.35 230.317 31.35ZM198.667 99.3C203.567 99.3 207.917 98.15 211.717 95.85C215.517 93.45 218.467 90.15 220.567 85.95C222.767 81.65 223.867 76.85 223.867 71.55C223.867 66.25 222.767 61.5 220.567 57.3C218.467 53.1 215.517 49.8 211.717 47.4C207.917 45 203.567 43.8 198.667 43.8C193.867 43.8 189.567 45 185.767 47.4C181.967 49.8 178.967 53.15 176.767 57.45C174.667 61.65 173.617 66.35 173.617 71.55C173.617 76.75 174.667 81.5 176.767 85.8C178.967 90 181.967 93.3 185.767 95.7C189.567 98.1 193.867 99.3 198.667 99.3ZM328.56 5.99999C330.66 5.99999 332.36 6.64999 333.66 7.94999C335.06 9.15 335.76 10.8 335.76 12.9C335.76 15 335.06 16.65 333.66 17.85C332.36 19.05 330.66 19.65 328.56 19.65H301.86V103.8C301.86 105.8 301.11 107.5 299.61 108.9C298.21 110.3 296.41 111 294.21 111C292.01 111 290.16 110.3 288.66 108.9C287.26 107.5 286.56 105.8 286.56 103.8V19.65H260.01C257.91 19.65 256.16 19.05 254.76 17.85C253.46 16.55 252.81 14.85 252.81 12.75C252.81 10.75 253.46 9.15 254.76 7.94999C256.16 6.64999 257.91 5.99999 260.01 5.99999H328.56ZM407.62 71.7C407.62 79.5 405.87 86.5 402.37 92.7C398.87 98.9 394.07 103.75 387.97 107.25C381.97 110.75 375.32 112.5 368.02 112.5C360.72 112.5 354.02 110.75 347.92 107.25C341.92 103.75 337.17 98.9 333.67 92.7C330.17 86.5 328.42 79.5 328.42 71.7C328.42 63.9 330.17 56.85 333.67 50.55C337.17 44.25 341.92 39.35 347.92 35.85C354.02 32.35 360.72 30.6 368.02 30.6C375.32 30.6 381.97 32.35 387.97 35.85C394.07 39.35 398.87 44.25 402.37 50.55C405.87 56.85 407.62 63.9 407.62 71.7ZM393.37 71.7C393.37 66.3 392.22 61.5 389.92 57.3C387.72 53 384.67 49.7 380.77 47.4C376.97 45 372.72 43.8 368.02 43.8C363.32 43.8 359.02 45 355.12 47.4C351.32 49.7 348.27 53 345.97 57.3C343.77 61.5 342.67 66.3 342.67 71.7C342.67 77 343.77 81.75 345.97 85.95C348.27 90.15 351.32 93.45 355.12 95.85C359.02 98.15 363.32 99.3 368.02 99.3C372.72 99.3 376.97 98.15 380.77 95.85C384.67 93.45 387.72 90.15 389.92 85.95C392.22 81.75 393.37 77 393.37 71.7ZM498.587 71.7C498.587 79.5 496.837 86.5 493.337 92.7C489.837 98.9 485.037 103.75 478.937 107.25C472.937 110.75 466.287 112.5 458.987 112.5C451.687 112.5 444.987 110.75 438.887 107.25C432.887 103.75 428.137 98.9 424.637 92.7C421.137 86.5 419.387 79.5 419.387 71.7C419.387 63.9 421.137 56.85 424.637 50.55C428.137 44.25 432.887 39.35 438.887 35.85C444.987 32.35 451.687 30.6 458.987 30.6C466.287 30.6 472.937 32.35 478.937 35.85C485.037 39.35 489.837 44.25 493.337 50.55C496.837 56.85 498.587 63.9 498.587 71.7ZM484.337 71.7C484.337 66.3 483.187 61.5 480.887 57.3C478.687 53 475.637 49.7 471.737 47.4C467.937 45 463.687 43.8 458.987 43.8C454.287 43.8 449.987 45 446.087 47.4C442.287 49.7 439.237 53 436.937 57.3C434.737 61.5 433.637 66.3 433.637 71.7C433.637 77 434.737 81.75 436.937 85.95C439.237 90.15 442.287 93.45 446.087 95.85C449.987 98.15 454.287 99.3 458.987 99.3C463.687 99.3 467.937 98.15 471.737 95.85C475.637 93.45 478.687 90.15 480.887 85.95C483.187 81.75 484.337 77 484.337 71.7ZM530.604 103.8C530.604 105.8 529.904 107.5 528.504 108.9C527.104 110.3 525.404 111 523.404 111C521.404 111 519.704 110.3 518.304 108.9C517.004 107.5 516.354 105.8 516.354 103.8V7.2C516.354 5.2 517.054 3.5 518.454 2.1C519.854 0.699998 521.554 -1.43051e-06 523.554 -1.43051e-06C525.554 -1.43051e-06 527.204 0.699998 528.504 2.1C529.904 3.5 530.604 5.2 530.604 7.2V103.8ZM548.593 98.7C547.693 97.3 547.243 95.95 547.243 94.65C547.243 92.65 548.293 90.95 550.393 89.55C551.393 88.85 552.543 88.5 553.843 88.5C555.643 88.5 557.293 89.25 558.793 90.75C561.793 94.15 564.993 96.7 568.393 98.4C571.893 100.1 576.043 100.95 580.843 100.95C584.643 100.85 587.993 100 590.893 98.4C593.793 96.7 595.243 94 595.243 90.3C595.243 86.9 593.743 84.3 590.743 82.5C587.843 80.7 583.543 79.05 577.843 77.55C572.243 76.05 567.593 74.5 563.893 72.9C560.193 71.2 557.043 68.8 554.443 65.7C551.943 62.5 550.693 58.35 550.693 53.25C550.693 48.75 551.943 44.8 554.443 41.4C557.043 38 560.443 35.35 564.643 33.45C568.943 31.55 573.593 30.6 578.593 30.6C583.393 30.6 588.143 31.5 592.843 33.3C597.643 35.1 601.543 37.85 604.543 41.55C605.743 42.95 606.343 44.4 606.343 45.9C606.343 47.5 605.543 49.05 603.943 50.55C602.943 51.45 601.693 51.9 600.193 51.9C598.393 51.9 596.943 51.3 595.843 50.1C593.743 47.7 591.143 45.85 588.043 44.55C585.043 43.25 581.693 42.6 577.993 42.6C574.193 42.6 570.943 43.4 568.243 45C565.643 46.5 564.343 49.1 564.343 52.8C564.443 56.3 565.943 58.9 568.843 60.6C571.843 62.3 576.393 63.95 582.493 65.55C587.793 66.95 592.193 68.45 595.693 70.05C599.193 71.65 602.143 74.05 604.543 77.25C606.943 80.35 608.143 84.45 608.143 89.55C608.143 94.25 606.793 98.35 604.093 101.85C601.393 105.25 597.843 107.9 593.443 109.8C589.143 111.6 584.543 112.5 579.643 112.5C573.343 112.5 567.493 111.4 562.093 109.2C556.793 107 552.293 103.5 548.593 98.7Z" fill="white"/>
</svg>
